<svg width="19" height="19" viewBox="0 0 19 19" fill="none" xmlns="http://www.w3.org/2000/svg">
<path d="M16.0656 0.463135H3.43635C2.01046 0.463135 0.924072 1.54953 0.924072 2.97541V15.6047C0.924072 17.0306 2.01046 18.117 3.43635 18.117H16.0656C17.4915 18.117 18.5779 17.0306 18.5779 15.6047V2.97541C18.5779 1.54953 17.4915 0.463135 16.0656 0.463135ZM9.751 14.5862C12.6707 14.5862 15.0472 12.2776 15.0472 9.49376C15.0472 9.01846 14.9793 8.47527 14.8435 8.06787H16.3372V15.2652C16.3372 15.6047 16.0656 15.9442 15.6582 15.9442H3.84375C3.50425 15.9442 3.16475 15.6726 3.16475 15.2652V7.99997H4.72644C4.59064 8.47526 4.52274 8.95056 4.52274 9.42586C4.45484 12.2776 6.83132 14.5862 9.751 14.5862ZM9.751 12.5492C7.84981 12.5492 6.35603 11.0554 6.35603 9.22216C6.35603 7.38888 7.84981 5.89509 9.751 5.89509C11.6522 5.89509 13.146 7.38888 13.146 9.22216C13.146 11.1233 11.6522 12.5492 9.751 12.5492ZM16.2693 5.28399C16.2693 5.69139 15.9298 6.03089 15.5224 6.03089H13.6213C13.2139 6.03089 12.8744 5.69139 12.8744 5.28399V3.45071C12.8744 3.04331 13.2139 2.70381 13.6213 2.70381H15.5224C15.9298 2.70381 16.2693 3.04331 16.2693 3.45071V5.28399Z" fill="white"/>
</svg>
