<svg width="22" height="14" viewBox="0 0 22 14" fill="none" xmlns="http://www.w3.org/2000/svg">
<path d="M21.6846 12.0814C21.6846 11.9952 21.5984 11.9952 21.5984 11.909C21.2535 11.2193 20.4776 10.3571 19.443 9.40872C18.9257 8.97764 18.667 8.63277 18.4946 8.46034C18.236 8.11547 18.236 7.85683 18.3222 7.51197C18.4084 7.25332 18.7533 6.82223 19.3568 6.04628C19.7016 5.6152 19.8741 5.35656 20.1327 5.09792C21.426 3.37359 22.0295 2.25278 21.857 1.73548L21.7708 1.64927C21.6846 1.56305 21.5984 1.47684 21.426 1.47684C21.2535 1.39062 20.9949 1.39062 20.7362 1.47684H17.46C17.3738 1.47684 17.3738 1.47684 17.2014 1.47684C17.1152 1.47684 17.029 1.47684 17.029 1.47684H16.9427H16.8565L16.7703 1.56305C16.6841 1.64927 16.6841 1.64926 16.6841 1.73548C16.3392 2.68386 15.9081 3.4598 15.477 4.32196C15.2184 4.75304 14.9598 5.18413 14.7011 5.529C14.4425 5.87386 14.27 6.1325 14.0976 6.30494C13.9252 6.47737 13.7527 6.56358 13.6665 6.73602C13.5803 6.82223 13.4079 6.90845 13.4079 6.82224C13.3216 6.82224 13.2354 6.82223 13.2354 6.73602C13.1492 6.6498 13.063 6.56358 12.9768 6.47737C12.8906 6.39115 12.8906 6.21872 12.8043 6.04628C12.8043 5.87385 12.8043 5.70142 12.8043 5.6152C12.8043 5.52899 12.8043 5.27035 12.8043 5.09792C12.8043 4.83927 12.8043 4.66683 12.8043 4.58061C12.8043 4.32196 12.8043 3.97711 12.8043 3.63224C12.8043 3.28738 12.8043 3.02872 12.8043 2.85629C12.8043 2.68386 12.8043 2.42521 12.8043 2.25278C12.8043 1.99413 12.8043 1.82169 12.8043 1.73548C12.8043 1.64926 12.7181 1.47684 12.7181 1.39062C12.6319 1.3044 12.5457 1.21818 12.4595 1.13197C12.3733 1.04575 12.2008 1.04576 12.1146 0.959539C11.6835 0.873323 11.1663 0.787109 10.5627 0.787109C9.18329 0.787109 8.2349 0.873328 7.89004 1.04576C7.71761 1.13198 7.54517 1.21819 7.45896 1.39062C7.28653 1.56305 7.28652 1.64927 7.37274 1.64927C7.80382 1.73549 8.14869 1.90791 8.32112 2.16656L8.40734 2.339C8.49356 2.42522 8.49354 2.59764 8.57976 2.85629C8.66597 3.11494 8.66598 3.37359 8.66598 3.71845C8.66598 4.23575 8.66598 4.75305 8.66598 5.09792C8.66598 5.529 8.57976 5.78764 8.57976 6.04628C8.57976 6.30493 8.49356 6.47737 8.40734 6.56359C8.32113 6.73602 8.32111 6.82224 8.2349 6.82224C8.2349 6.82224 8.23489 6.90845 8.14868 6.90845C8.06246 6.90845 7.97625 6.99467 7.80382 6.99467C7.7176 6.99467 7.54517 6.90845 7.45896 6.82224C7.28653 6.73602 7.11409 6.56359 7.02788 6.39116C6.85545 6.21872 6.68301 5.96007 6.51058 5.6152C6.33814 5.27034 6.07948 4.92548 5.90705 4.40818L5.73464 4.06332C5.64842 3.89089 5.47599 3.54602 5.30356 3.11494C5.13112 2.68386 4.95869 2.339 4.78625 1.90792C4.70004 1.73549 4.61383 1.64927 4.52762 1.56305H4.44139C4.44139 1.56305 4.35517 1.47684 4.26895 1.47684C4.18274 1.47684 4.09653 1.39062 4.01031 1.39062H0.906528C0.561664 1.39062 0.389234 1.47683 0.303018 1.56305L0.216797 1.64927C0.216797 1.64927 0.216797 1.73548 0.216797 1.8217C0.216797 1.90792 0.216802 1.99413 0.303018 2.16656C0.734099 3.20115 1.25139 4.23575 1.76869 5.27034C2.28599 6.21872 2.80329 7.08089 3.14815 7.6844C3.57923 8.28791 3.92409 8.89142 4.35517 9.40872C4.78625 9.92602 5.0449 10.2709 5.13111 10.4433C5.30354 10.6157 5.38976 10.702 5.47597 10.7882L5.73464 11.0468C5.90707 11.2193 6.16571 11.4779 6.51058 11.7366C6.85544 11.9952 7.28652 12.2538 7.7176 12.5125C8.14868 12.7711 8.66598 12.9436 9.18328 13.116C9.78679 13.2884 10.3041 13.3747 10.8214 13.2884H12.1146C12.3733 13.2884 12.5457 13.2022 12.7181 13.0298L12.8043 12.9436C12.8043 12.8574 12.8906 12.8574 12.8906 12.7711C12.8906 12.6849 12.8906 12.5987 12.8906 12.4263C12.8906 12.0814 12.8906 11.8228 12.9768 11.5641C13.063 11.3055 13.063 11.133 13.1492 10.9606C13.2354 10.7882 13.3216 10.702 13.4079 10.6157C13.4941 10.5295 13.5803 10.4433 13.5803 10.4433H13.6665C13.8389 10.3571 14.0976 10.4433 14.27 10.6157C14.5287 10.7882 14.7873 11.0468 14.9597 11.3055C15.1322 11.5641 15.3908 11.8228 15.7357 12.1676C16.0806 12.5125 16.3392 12.7711 16.5117 12.8574L16.7703 13.0298C16.9427 13.116 17.1152 13.2022 17.3738 13.2884C17.6325 13.3747 17.8049 13.3747 17.9773 13.3747L20.9087 13.2884C21.1673 13.2884 21.426 13.2022 21.5984 13.116C21.7708 13.0298 21.857 12.9436 21.857 12.7711C21.857 12.6849 21.857 12.5125 21.857 12.4263C21.6846 12.2539 21.6846 12.1676 21.6846 12.0814Z" fill="white"/>
</svg>
